<?xml version="1.0" encoding="UTF-8" standalone="no"?>
<svg xmlns="http://www.w3.org/2000/svg" width="32" height="32" viewBox="0 0 32 32">
  <style>
    .main { fill: #3498db; }
    .red { fill: #B02A30; }
    .green { fill: #2ecc71; }
    
    /* Dark mode adaptation */
    @media (prefers-color-scheme: dark) {
      .background { fill: #1e1e1e; }
    }
    
    :root.dark-mode .background, html.dark-mode .background, body.dark-mode .background {
      fill: #1e1e1e;
    }
  </style>
  
  <!-- Background Circle -->
  <circle cx="16" cy="16" r="15" class="background" fill="#ecf0f1" stroke="#bdc3c7" stroke-width="1"/>
  
  <!-- Equipment Tracker "ET" Monogram -->
  <g transform="translate(6, 6) scale(0.3)">
    <!-- Stylized "E" -->
    <path class="main" d="M5,10 L5,70 L40,70 L40,60 L15,60 L15,45 L35,45 L35,35 L15,35 L15,20 L40,20 L40,10 Z"/>
    
    <!-- Stylized "T" -->
    <path class="red" d="M45,10 L80,10 L80,20 L68,20 L68,70 L57,70 L57,20 L45,20 Z"/>
  </g>
  
  <!-- MBP-inspired flame (simplified) -->
  <path class="red" d="M8,23 C7,21 7.5,19 8,18 C8.5,17 8,16 8,16 C8,16 9,17 9,19 C9,21 8,22 8,23 Z"/>
</svg>