<?xml version="1.0" encoding="UTF-8" standalone="no"?>
<svg width="120" height="120" viewBox="0 0 120 120" xmlns="http://www.w3.org/2000/svg">
  <style>
    .gear-eye { fill: #333333; }
    .gear-outer { fill: #444444; }
    .flame { fill: #c10000; }
    .eye-white { fill: white; }
    .eye-highlight { fill: white; opacity: 0.8; }
    .gear-border { fill: none; stroke: #990000; stroke-width: 1.5; }
  </style>
  
  <!-- Gear -->
  <path class="gear-outer" d="M60,20 
    L68,22 L72,15 L82,20 L82,28 L90,32 
    L100,26 L105,35 L98,42 L100,50 
    L110,52 L110,62 L100,65 L98,73 
    L105,80 L100,88 L90,83 L82,90 
    L82,100 L72,105 L68,98 L60,100 
    L52,98 L48,105 L38,100 L38,90 
    L30,83 L20,88 L15,80 L22,73 
    L20,65 L10,62 L10,52 L20,50 
    L22,42 L15,35 L20,26 L30,32 
    L38,28 L38,20 L48,15 L52,22 Z" />
  
  <!-- Eye in center -->
  <circle class="eye-white" cx="60" cy="60" r="20" />
  <circle class="gear-eye" cx="60" cy="60" r="15" />
  <circle class="eye-highlight" cx="55" cy="55" r="5" />
  
  <!-- Flame -->
  <path class="flame" d="M82,20 
    C95,35 105,20 110,35
    C115,50 95,70 100,90
    C85,70 90,50 82,28" />
    
  <!-- Red border around gear -->
  <path class="gear-border" d="M60,20 
    L68,22 L72,15 L82,20 L82,28 L90,32 
    L100,26 L105,35 L98,42 L100,50 
    L110,52 L110,62 L100,65 L98,73 
    L105,80 L100,88 L90,83 L82,90 
    L82,100 L72,105 L68,98 L60,100 
    L52,98 L48,105 L38,100 L38,90 
    L30,83 L20,88 L15,80 L22,73 
    L20,65 L10,62 L10,52 L20,50 
    L22,42 L15,35 L20,26 L30,32 
    L38,28 L38,20 L48,15 L52,22 Z" />
</svg>